<svg width="980" height="260" viewBox="0 0 980 260" xmlns="http://www.w3.org/2000/svg">
  <svg x="10" y="15" width="225" height="230" viewBox="0 0 956 1076">
    <g transform="translate(0,1076) scale(0.1,-0.1)" fill="#1B85FF">
      <path d="M4480 10020 c-10 -18 -21 -20 -120 -20 -99 0 -110 -2 -120 -20 -9
-17 -21 -20 -80 -20 -59 0 -71 -3 -80 -20 -9 -17 -21 -20 -80 -20 -59 0 -71
-3 -80 -20 -8 -16 -21 -20 -60 -20 -39 0 -52 -4 -60 -20 -8 -16 -21 -20 -60
-20 -39 0 -52 -4 -60 -20 -7 -13 -21 -20 -40 -20 -19 0 -33 -7 -40 -20 -7 -13
-21 -20 -40 -20 -19 0 -33 -7 -40 -20 -7 -13 -21 -20 -40 -20 -19 0 -33 -7
-40 -20 -7 -12 -21 -20 -38 -20 -19 0 -37 -12 -62 -40 -25 -28 -43 -40 -62
-40 -17 0 -31 -8 -38 -20 -7 -12 -21 -20 -38 -20 -19 0 -37 -12 -62 -40 -23
-26 -44 -40 -60 -40 -16 0 -37 -14 -60 -40 -22 -25 -44 -40 -59 -40 -15 0 -43
-20 -81 -60 -38 -40 -66 -60 -81 -60 -15 0 -37 -15 -59 -40 -23 -26 -44 -40
-60 -40 -16 0 -37 -14 -60 -40 -23 -26 -44 -40 -60 -40 -16 0 -37 -14 -60 -40
-22 -25 -44 -40 -59 -40 -15 0 -43 -20 -81 -60 -38 -40 -66 -60 -81 -60 -15 0
-37 -15 -59 -40 -23 -26 -44 -40 -60 -40 -16 0 -37 -14 -60 -40 -23 -26 -44
-40 -60 -40 -16 0 -37 -14 -60 -40 -23 -26 -44 -40 -60 -40 -16 0 -37 -14 -60
-40 -23 -26 -44 -40 -60 -40 -16 0 -37 -14 -60 -40 -23 -26 -44 -40 -60 -40
-16 0 -37 -14 -60 -40 -22 -25 -44 -40 -59 -40 -15 0 -43 -20 -81 -60 -35 -36
-66 -60 -79 -60 -31 0 -441 -412 -441 -442 0 -14 -16 -37 -40 -58 -28 -25 -40
-43 -40 -62 0 -17 -8 -31 -20 -38 -13 -7 -20 -21 -20 -40 0 -19 -7 -33 -20
-40 -16 -8 -20 -21 -20 -60 0 -39 -4 -52 -20 -60 -16 -8 -20 -21 -20 -60 0
-39 -4 -52 -20 -60 -18 -9 -20 -21 -20 -100 0 -79 -2 -91 -20 -100 -18 -10
-20 -21 -20 -120 0 -99 2 -110 20 -120 18 -10 20 -21 20 -120 0 -99 2 -110 20
-120 16 -8 20 -21 20 -60 0 -39 4 -52 20 -60 13 -7 20 -21 20 -40 0 -19 7 -33
20 -40 13 -7 20 -21 20 -40 0 -19 7 -33 20 -40 12 -6 20 -21 20 -36 0 -33 289
-324 322 -324 14 0 37 -16 58 -40 23 -26 44 -40 60 -40 16 0 37 -14 60 -40 23
-26 44 -40 60 -40 16 0 37 -14 60 -40 23 -26 44 -40 60 -40 16 0 37 -14 60
-40 25 -28 43 -40 62 -40 17 0 31 -8 38 -20 7 -13 21 -20 40 -20 19 0 33 -7
40 -20 7 -12 21 -20 38 -20 19 0 37 -12 62 -40 23 -26 44 -40 60 -40 16 0 37
-14 60 -40 25 -28 43 -40 62 -40 17 0 31 -8 38 -20 7 -12 21 -20 38 -20 19 0
37 -12 62 -40 23 -26 44 -40 60 -40 16 0 37 -14 60 -40 25 -28 43 -40 62 -40
17 0 31 -8 38 -20 7 -12 21 -20 38 -20 19 0 37 -12 62 -40 23 -26 44 -40 60
-40 16 0 37 -14 60 -40 25 -28 43 -40 62 -40 17 0 31 -8 38 -20 7 -13 21 -20
40 -20 19 0 33 -7 40 -20 7 -12 21 -20 38 -20 19 0 37 -12 62 -40 25 -28 43
-40 62 -40 17 0 31 -8 38 -20 7 -12 21 -20 38 -20 19 0 37 -12 62 -40 23 -26
44 -40 60 -40 16 0 37 -14 60 -40 25 -28 43 -40 62 -40 17 0 31 -8 38 -20 7
-12 21 -20 38 -20 19 0 37 -12 62 -40 23 -26 44 -40 60 -40 16 0 37 -14 60
-40 25 -28 43 -40 62 -40 17 0 31 -8 38 -20 7 -12 21 -20 38 -20 19 0 37 -12
62 -40 25 -28 43 -40 62 -40 17 0 31 -8 38 -20 7 -13 21 -20 40 -20 19 0 33
-7 40 -20 8 -16 21 -20 60 -20 39 0 52 -4 60 -20 8 -16 21 -20 60 -20 39 0 52
-4 60 -20 10 -19 21 -20 300 -20 279 0 290 1 300 20 7 13 21 20 40 20 19 0 33
7 40 20 7 12 21 20 38 20 19 0 37 12 62 40 22 25 44 40 58 40 30 0 82 52 82
82 0 14 15 36 40 58 36 31 40 40 40 82 0 37 4 50 20 58 19 10 20 21 20 160 0
139 -1 150 -20 160 -13 7 -20 21 -20 40 0 19 -7 33 -20 40 -12 6 -20 21 -20
36 0 33 -209 244 -242 244 -14 0 -37 16 -58 40 -25 28 -43 40 -62 40 -17 0
-31 8 -38 20 -7 12 -21 20 -38 20 -19 0 -37 12 -62 40 -23 26 -44 40 -60 40
-16 0 -37 14 -60 40 -23 26 -44 40 -60 40 -16 0 -37 14 -60 40 -25 28 -43 40
-62 40 -17 0 -31 8 -38 20 -7 12 -21 20 -38 20 -19 0 -37 12 -62 40 -23 26
-44 40 -60 40 -16 0 -37 14 -60 40 -23 26 -44 40 -60 40 -16 0 -37 14 -60 40
-23 26 -44 40 -60 40 -16 0 -37 14 -60 40 -25 28 -43 40 -62 40 -17 0 -31 8
-38 20 -7 12 -21 20 -38 20 -19 0 -37 12 -62 40 -23 26 -44 40 -60 40 -16 0
-37 14 -60 40 -25 28 -43 40 -62 40 -17 0 -31 8 -38 20 -7 12 -21 20 -38 20
-19 0 -37 12 -62 40 -23 26 -44 40 -60 40 -16 0 -37 14 -60 40 -23 26 -44 40
-60 40 -16 0 -37 14 -60 40 -23 26 -44 40 -60 40 -16 0 -37 14 -60 40 -25 28
-43 40 -62 40 -17 0 -31 8 -38 20 -7 12 -21 20 -38 20 -19 0 -37 12 -62 40
-25 28 -43 40 -62 40 -17 0 -31 8 -38 20 -6 12 -21 20 -36 20 -19 0 -43 17
-84 60 -41 43 -65 60 -84 60 -15 0 -30 8 -36 20 -7 12 -21 20 -38 20 -19 0
-37 12 -62 40 -23 26 -44 40 -60 40 -16 0 -37 14 -60 40 -25 28 -43 40 -62 40
-17 0 -31 8 -38 20 -7 12 -21 20 -38 20 -30 1 -88 52 -77 69 3 6 19 11 35 11
19 0 33 7 40 20 7 12 21 20 38 20 19 0 37 12 62 40 22 25 44 40 59 40 15 0 43
20 81 60 38 40 66 60 81 60 15 0 37 15 59 40 22 25 44 40 59 40 15 0 43 20 81
60 38 40 66 60 81 60 15 0 37 15 59 40 23 26 44 40 60 40 16 0 37 14 60 40 23
26 44 40 60 40 16 0 37 14 60 40 23 26 44 40 60 40 16 0 37 14 60 40 22 25 44
40 59 40 15 0 43 20 81 60 38 40 66 60 81 60 15 0 37 15 59 40 23 26 44 40 60
40 16 0 37 14 60 40 23 26 44 40 60 40 16 0 37 14 60 40 23 26 44 40 60 40 16
0 37 14 60 40 23 26 44 40 60 40 16 0 37 14 60 40 25 28 43 40 62 40 17 0 31
8 38 20 7 13 21 20 40 20 19 0 33 7 40 20 7 13 21 20 40 20 19 0 33 7 40 20 7
13 21 20 40 20 19 0 33 7 40 20 7 13 21 20 40 20 19 0 33 7 40 20 8 16 21 20
60 20 39 0 52 4 60 20 10 18 21 20 120 20 99 0 110 2 120 20 10 19 21 20 200
20 179 0 190 -1 200 -20 9 -18 21 -20 100 -20 79 0 91 -2 100 -20 9 -17 21
-20 80 -20 59 0 71 -3 80 -20 7 -13 21 -20 40 -20 19 0 33 -7 40 -20 8 -16 21
-20 60 -20 39 0 52 -4 60 -20 7 -12 21 -20 38 -20 19 0 37 -12 62 -40 25 -28
43 -40 62 -40 17 0 31 -8 38 -20 7 -12 21 -20 38 -20 19 0 37 -12 62 -40 23
-26 44 -40 60 -40 16 0 37 -14 60 -40 23 -26 44 -40 60 -40 16 0 37 -14 60
-40 23 -26 44 -40 60 -40 16 0 37 -14 60 -40 23 -26 44 -40 60 -40 16 0 37
-14 60 -40 23 -26 44 -40 60 -40 16 0 37 -14 60 -40 23 -26 44 -40 60 -40 16
0 37 -14 60 -40 23 -26 44 -40 60 -40 16 0 37 -14 60 -40 23 -26 44 -40 60
-40 16 0 37 -14 60 -40 23 -26 44 -40 60 -40 16 0 37 -14 60 -40 23 -26 44
-40 60 -40 16 0 37 -14 60 -40 23 -26 44 -40 60 -40 16 0 37 -14 60 -40 22
-25 44 -40 59 -40 15 0 43 -20 81 -60 37 -38 66 -60 80 -60 14 0 43 -22 80
-60 35 -36 66 -60 79 -60 29 0 281 -252 281 -281 0 -13 24 -44 60 -79 43 -41
60 -65 60 -84 0 -15 8 -30 20 -36 13 -7 20 -21 20 -40 0 -19 7 -33 20 -40 13
-7 20 -21 20 -40 0 -19 7 -33 20 -40 13 -7 20 -21 20 -40 0 -19 7 -33 20 -40
13 -7 20 -21 20 -40 0 -19 7 -33 20 -40 13 -7 20 -21 20 -40 0 -19 7 -33 20
-40 12 -6 20 -21 20 -36 0 -32 50 -84 82 -84 14 0 36 -15 58 -40 l35 -40 147
0 c137 0 148 1 158 20 6 12 21 20 36 20 17 0 45 21 94 70 49 49 70 77 70 94 0
15 8 30 20 36 13 7 20 21 20 40 0 19 7 33 20 40 13 7 20 21 20 40 0 19 7 33
20 40 17 9 20 21 20 80 0 59 3 71 20 80 19 10 20 21 20 300 0 279 -1 290 -20
300 -16 8 -20 21 -20 60 0 39 -4 52 -20 60 -16 8 -20 21 -20 60 0 39 -4 52
-20 60 -16 8 -20 21 -20 58 0 42 -4 51 -40 82 -28 25 -40 43 -40 62 0 17 -8
31 -20 38 -12 6 -20 21 -20 35 0 34 -369 405 -402 405 -14 0 -37 16 -58 40
-22 25 -44 40 -59 40 -15 0 -43 20 -81 60 -38 40 -66 60 -81 60 -15 0 -37 15
-59 40 -23 26 -44 40 -60 40 -16 0 -37 14 -60 40 -23 26 -44 40 -60 40 -16 0
-37 14 -60 40 -23 26 -44 40 -60 40 -16 0 -37 14 -60 40 -23 26 -44 40 -60 40
-16 0 -37 14 -60 40 -23 26 -44 40 -60 40 -16 0 -37 14 -60 40 -23 26 -44 40
-60 40 -16 0 -37 14 -60 40 -23 26 -44 40 -60 40 -16 0 -37 14 -60 40 -23 26
-44 40 -60 40 -16 0 -37 14 -60 40 -23 26 -44 40 -60 40 -16 0 -37 14 -60 40
-25 28 -43 40 -62 40 -17 0 -31 8 -38 20 -7 12 -21 20 -38 20 -19 0 -37 12
-62 40 -23 26 -44 40 -60 40 -16 0 -37 14 -60 40 -23 26 -44 40 -60 40 -16 0
-37 14 -60 40 -25 28 -43 40 -62 40 -17 0 -31 8 -38 20 -7 12 -21 20 -38 20
-19 0 -37 12 -62 40 -25 28 -43 40 -62 40 -17 0 -31 8 -38 20 -7 13 -21 20
-40 20 -19 0 -33 7 -40 20 -8 16 -21 20 -60 20 -39 0 -52 4 -60 20 -7 13 -21
20 -40 20 -19 0 -33 7 -40 20 -8 16 -21 20 -60 20 -39 0 -52 4 -60 20 -9 17
-21 20 -80 20 -59 0 -71 3 -80 20 -9 17 -21 20 -80 20 -59 0 -71 3 -80 20 -10
18 -21 20 -140 20 -119 0 -130 2 -140 20 -10 19 -21 20 -400 20 -379 0 -390
-1 -400 -20z M5240 7140 c-7 -13 -21 -20 -40 -20 -19 0 -33 -7 -40 -20 -7 -13
-21 -20 -40 -20 -19 0 -33 -7 -40 -20 -6 -12 -21 -20 -36 -20 -35 0 -244 -209
-244 -244 0 -15 -8 -30 -20 -36 -13 -7 -20 -21 -20 -40 0 -19 -7 -33 -20 -40
-17 -9 -20 -21 -20 -80 0 -59 -3 -71 -20 -80 -18 -9 -20 -21 -20 -100 0 -79 2
-91 20 -100 17 -9 20 -21 20 -80 0 -59 3 -71 20 -80 13 -7 20 -21 20 -40 0
-19 7 -33 20 -40 13 -7 20 -21 20 -40 0 -19 7 -33 20 -40 12 -6 20 -21 20 -36
0 -35 209 -244 244 -244 15 0 30 -8 36 -20 7 -12 21 -20 38 -20 19 0 37 -12
62 -40 25 -28 43 -40 62 -40 17 0 31 -8 38 -20 7 -12 21 -20 38 -20 19 0 37
-12 62 -40 25 -28 43 -40 62 -40 17 0 31 -8 38 -20 7 -12 21 -20 38 -20 19 0
37 -12 62 -40 23 -26 44 -40 60 -40 16 0 37 -14 60 -40 25 -28 43 -40 62 -40
17 0 31 -8 38 -20 7 -12 21 -20 38 -20 19 0 37 -12 62 -40 25 -28 43 -40 62
-40 17 0 31 -8 38 -20 7 -13 21 -20 40 -20 19 0 33 -7 40 -20 7 -12 21 -20 38
-20 19 0 37 -12 62 -40 23 -26 44 -40 60 -40 16 0 37 -14 60 -40 25 -28 43
-40 62 -40 17 0 31 -8 38 -20 7 -12 21 -20 38 -20 19 0 37 -12 62 -40 25 -28
43 -40 62 -40 17 0 31 -8 38 -20 7 -12 21 -20 38 -20 19 0 37 -12 62 -40 23
-26 44 -40 60 -40 16 0 37 -14 60 -40 25 -28 43 -40 62 -40 17 0 31 -8 38 -20
7 -12 21 -20 38 -20 19 0 37 -12 62 -40 23 -26 44 -40 60 -40 16 0 37 -14 60
-40 25 -28 43 -40 62 -40 17 0 31 -8 38 -20 7 -13 21 -20 40 -20 19 0 33 -7
40 -20 7 -12 21 -20 38 -20 19 0 37 -12 62 -40 25 -28 43 -40 62 -40 17 0 31
-8 38 -20 7 -13 21 -20 40 -20 19 0 33 -7 40 -20 7 -13 21 -20 40 -20 16 0 32
-5 35 -11 10 -16 -90 -109 -117 -109 -14 0 -37 -16 -58 -40 -23 -26 -44 -40
-60 -40 -16 0 -37 -14 -60 -40 -23 -26 -44 -40 -60 -40 -16 0 -37 -14 -60 -40
-23 -26 -44 -40 -60 -40 -16 0 -37 -14 -60 -40 -23 -26 -44 -40 -60 -40 -16 0
-37 -14 -60 -40 -23 -26 -44 -40 -60 -40 -16 0 -37 -14 -60 -40 -23 -26 -44
-40 -60 -40 -16 0 -37 -14 -60 -40 -22 -25 -44 -40 -59 -40 -15 0 -43 -20 -81
-60 -38 -40 -66 -60 -81 -60 -15 0 -37 -15 -59 -40 -23 -26 -44 -40 -60 -40
-16 0 -37 -14 -60 -40 -23 -26 -44 -40 -60 -40 -16 0 -37 -14 -60 -40 -23 -26
-44 -40 -60 -40 -16 0 -37 -14 -60 -40 -23 -26 -44 -40 -60 -40 -16 0 -37 -14
-60 -40 -23 -26 -44 -40 -60 -40 -16 0 -37 -14 -60 -40 -25 -28 -43 -40 -62
-40 -17 0 -31 -8 -38 -20 -7 -13 -21 -20 -40 -20 -19 0 -33 -7 -40 -20 -7 -13
-21 -20 -40 -20 -19 0 -33 -7 -40 -20 -7 -13 -21 -20 -40 -20 -19 0 -33 -7
-40 -20 -7 -13 -21 -20 -40 -20 -19 0 -33 -7 -40 -20 -8 -16 -21 -20 -60 -20
-39 0 -52 -4 -60 -20 -9 -18 -21 -20 -100 -20 -79 0 -91 -2 -100 -20 -10 -19
-21 -20 -220 -20 -199 0 -210 1 -220 20 -9 18 -21 20 -100 20 -79 0 -91 2
-100 20 -9 17 -21 20 -80 20 -59 0 -71 3 -80 20 -8 16 -21 20 -60 20 -39 0
-52 4 -60 20 -7 13 -21 20 -40 20 -19 0 -33 7 -40 20 -7 13 -21 20 -40 20 -19
0 -33 7 -40 20 -7 13 -21 20 -40 20 -19 0 -33 7 -40 20 -7 12 -21 20 -38 20
-19 0 -37 12 -62 40 -23 26 -44 40 -60 40 -16 0 -37 14 -60 40 -23 26 -44 40
-60 40 -16 0 -37 14 -60 40 -22 25 -44 40 -59 40 -15 0 -43 20 -81 60 -41 43
-65 60 -84 60 -15 0 -30 8 -36 20 -7 12 -21 20 -38 20 -19 0 -37 12 -62 40
-23 26 -44 40 -60 40 -16 0 -37 14 -60 40 -23 26 -44 40 -60 40 -16 0 -37 14
-60 40 -22 25 -44 40 -59 40 -15 0 -43 20 -81 60 -41 43 -65 60 -84 60 -15 0
-30 8 -36 20 -6 12 -21 20 -36 20 -19 0 -43 17 -84 60 -38 40 -66 60 -81 60
-15 0 -37 15 -59 40 -23 26 -44 40 -60 40 -16 0 -37 14 -60 40 -23 26 -44 40
-60 40 -16 0 -37 14 -60 40 -23 26 -44 40 -60 40 -16 0 -37 14 -60 40 -21 24
-44 40 -58 40 -32 0 -362 330 -362 362 0 14 -16 37 -40 58 -28 25 -40 43 -40
62 0 17 -8 31 -20 38 -13 7 -20 21 -20 40 0 19 -7 33 -20 40 -13 7 -20 21 -20
40 0 19 -7 33 -20 40 -16 8 -20 21 -20 60 0 39 -4 52 -20 60 -16 8 -20 21 -20
60 0 39 -4 52 -20 60 -16 8 -20 21 -20 60 0 39 -4 52 -20 60 -12 6 -20 21 -20
36 0 17 -21 45 -70 94 -65 66 -72 70 -114 70 -35 0 -48 5 -56 20 -9 17 -21 20
-80 20 -59 0 -71 -3 -80 -20 -7 -13 -21 -20 -40 -20 -19 0 -33 -7 -40 -20 -6
-12 -21 -20 -36 -20 -35 0 -164 -129 -164 -164 0 -15 -8 -30 -20 -36 -16 -8
-20 -21 -20 -60 0 -39 -4 -52 -20 -60 -17 -9 -20 -21 -20 -80 0 -59 -3 -71
-20 -80 -19 -10 -20 -21 -20 -320 0 -299 1 -310 20 -320 17 -9 20 -21 20 -80
0 -59 3 -71 20 -80 16 -8 20 -21 20 -60 0 -39 4 -52 20 -60 13 -7 20 -21 20
-40 0 -19 7 -33 20 -40 13 -7 20 -21 20 -40 0 -19 7 -33 20 -40 13 -7 20 -21
20 -40 0 -19 7 -33 20 -40 12 -6 20 -21 20 -36 0 -19 21 -47 80 -104 50 -49
80 -86 80 -99 0 -29 172 -201 201 -201 13 0 50 -30 99 -80 51 -52 86 -80 100
-80 14 0 44 -22 80 -60 38 -40 66 -60 81 -60 15 0 37 -15 59 -40 23 -26 44
-40 60 -40 16 0 37 -14 60 -40 23 -26 44 -40 60 -40 16 0 37 -14 60 -40 22
-25 44 -40 59 -40 15 0 43 -20 81 -60 38 -40 66 -60 81 -60 15 0 37 -15 59
-40 23 -26 44 -40 60 -40 16 0 37 -14 60 -40 23 -26 44 -40 60 -40 16 0 37
-14 60 -40 23 -26 44 -40 60 -40 16 0 37 -14 60 -40 23 -26 44 -40 60 -40 16
0 37 -14 60 -40 23 -26 44 -40 60 -40 16 0 37 -14 60 -40 23 -26 44 -40 60
-40 16 0 37 -14 60 -40 23 -26 44 -40 60 -40 16 0 37 -14 60 -40 23 -26 44
-40 60 -40 16 0 37 -14 60 -40 25 -28 43 -40 62 -40 17 0 31 -8 38 -20 7 -12
21 -20 38 -20 19 0 37 -12 62 -40 25 -28 43 -40 62 -40 17 0 31 -8 38 -20 7
-13 21 -20 40 -20 19 0 33 -7 40 -20 7 -13 21 -20 40 -20 19 0 33 -7 40 -20 7
-13 21 -20 40 -20 19 0 33 -7 40 -20 8 -16 21 -20 60 -20 39 0 52 -4 60 -20 7
-13 21 -20 40 -20 19 0 33 -7 40 -20 8 -16 21 -20 60 -20 39 0 52 -4 60 -20 9
-18 21 -20 100 -20 79 0 91 -2 100 -20 9 -18 21 -20 100 -20 79 0 91 -2 100
-20 10 -20 21 -20 440 -20 419 0 430 0 440 20 10 18 21 20 120 20 99 0 110 2
120 20 9 18 21 20 100 20 79 0 91 2 100 20 8 16 21 20 60 20 39 0 52 4 60 20
8 16 21 20 60 20 39 0 52 4 60 20 7 13 21 20 40 20 19 0 33 7 40 20 8 16 21
20 60 20 39 0 52 4 60 20 7 12 21 20 38 20 19 0 37 12 62 40 25 28 43 40 62
40 17 0 31 8 38 20 7 12 21 20 38 20 19 0 37 12 62 40 25 28 43 40 62 40 17 0
31 8 38 20 6 12 21 20 36 20 19 0 43 17 84 60 38 40 66 60 81 60 15 0 37 15
59 40 23 26 44 40 60 40 16 0 37 14 60 40 23 26 44 40 60 40 16 0 37 14 60 40
22 25 44 40 59 40 15 0 43 20 81 60 38 40 66 60 81 60 15 0 37 15 59 40 23 26
44 40 60 40 16 0 37 14 60 40 22 25 44 40 59 40 15 0 43 20 81 60 38 40 66 60
81 60 15 0 37 15 59 40 23 26 44 40 60 40 16 0 37 14 60 40 22 25 44 40 59 40
15 0 43 20 81 60 37 38 66 60 80 60 14 0 43 22 80 60 38 40 66 60 81 60 15 0
37 15 59 40 21 24 44 40 58 40 32 0 442 410 442 442 0 14 16 37 40 58 28 25
40 43 40 62 0 17 8 31 20 38 13 7 20 21 20 40 0 19 7 33 20 40 16 8 20 21 20
60 0 39 4 52 20 60 16 8 20 21 20 60 0 39 4 52 20 60 18 9 20 21 20 100 0 79
2 91 20 100 18 10 20 21 20 140 0 119 -2 130 -20 140 -18 10 -20 21 -20 120 0
99 -2 110 -20 120 -13 7 -20 21 -20 40 0 19 -7 33 -20 40 -16 8 -20 21 -20 60
0 39 -4 52 -20 60 -12 7 -20 21 -20 38 0 19 -12 37 -40 62 -24 21 -40 44 -40
58 0 15 -45 68 -150 172 -104 105 -157 150 -172 150 -14 0 -37 16 -58 40 -23
26 -44 40 -60 40 -16 0 -37 14 -60 40 -23 26 -44 40 -60 40 -16 0 -37 14 -60
40 -23 26 -44 40 -60 40 -16 0 -37 14 -60 40 -23 26 -44 40 -60 40 -16 0 -37
14 -60 40 -23 26 -44 40 -60 40 -16 0 -37 14 -60 40 -23 26 -44 40 -60 40 -16
0 -37 14 -60 40 -25 28 -43 40 -62 40 -17 0 -31 8 -38 20 -7 12 -21 20 -38 20
-19 0 -37 12 -62 40 -23 26 -44 40 -60 40 -16 0 -37 14 -60 40 -23 26 -44 40
-60 40 -16 0 -37 14 -60 40 -23 26 -44 40 -60 40 -16 0 -37 14 -60 40 -25 28
-43 40 -62 40 -17 0 -31 8 -38 20 -7 12 -21 20 -38 20 -19 0 -37 12 -62 40
-23 26 -44 40 -60 40 -16 0 -37 14 -60 40 -23 26 -44 40 -60 40 -16 0 -37 14
-60 40 -25 28 -43 40 -62 40 -17 0 -31 8 -38 20 -7 12 -21 20 -38 20 -19 0
-37 12 -62 40 -23 26 -44 40 -60 40 -16 0 -37 14 -60 40 -23 26 -44 40 -60 40
-16 0 -37 14 -60 40 -25 28 -43 40 -62 40 -17 0 -31 8 -38 20 -7 13 -21 20
-40 20 -19 0 -33 7 -40 20 -7 13 -21 20 -40 20 -19 0 -33 7 -40 20 -7 13 -21
20 -40 20 -19 0 -33 7 -40 20 -8 16 -21 20 -60 20 -39 0 -52 4 -60 20 -10 19
-21 20 -320 20 -299 0 -310 -1 -320 -20z"/>
    </g>
  </svg>
  <text x="270" y="185" font-size="155" font-family="Arial, Helvetica Neue, sans-serif" font-weight="800" fill="#122A7A" letter-spacing="-3">Synapse</text>
</svg>
